<?xml version="1.0" standalone="no"?><!DOCTYPE svg PUBLIC "-//W3C//DTD SVG 1.1//EN" "http://www.w3.org/Graphics/SVG/1.1/DTD/svg11.dtd"><svg t="1763565296596" class="icon" viewBox="0 0 1024 1024" version="1.1" xmlns="http://www.w3.org/2000/svg" p-id="14616" xmlns:xlink="http://www.w3.org/1999/xlink" width="200" height="200"><path d="M176.583524 99.677005a92.563692 92.563692 0 0 1 27.184638 24.164123h1.510257v-3.020515c-8.125186-7.823135-14.105807-21.717505-27.184637-24.164123C195.869514 70.57434 222.314126 56.634662 223.401511 12.082061c3.609516 4.666696 3.473593 10.571804 6.041031 16.612835 10.299957 24.028199 24.571892 59.307818 55.879533 61.920563v1.510258c-10.496291 2.914797-24.919251 15.782193-30.205153 24.164123-2.552335 4.047491-1.918027 10.058316-4.530773 13.592319v3.020515c8.623571-3.111131 8.744392-9.831777 13.592319-16.612834 7.551288-10.647316 24.164123-11.628984 30.205153-24.164123 1.631078-1.389437 0.135923 0.120821 1.510258-1.510258-12.867395-7.687211-17.322655-4.712004-31.715411-15.102576-14.136012-10.209342-32.697078-46.500833-36.246184-58.900049-0.679616-2.371105 1.389437-11.870625 1.510258-16.612834h-10.571804c0.52859 52.194505-24.164123 74.923882-54.369275 98.166748h-1.510258c3.45849 2.250284 12.082061 0.664513 13.592319 1.510257zM226.422027 6.041031h1.510257v3.020515h-1.510257zM820.255338 768.14725c-0.105718 0.181231-0.196333 0.392667-0.302052 0.573898 0.498385 0.634308 0.558795 0.347359 0.302052-0.573898z" fill="#1afa29" p-id="14617"></path><path d="M896.976427 493.854254c-12.565344-5.467133-32.99913-0.981667-80.043656-40.776957q-1.782104-9.861983-3.820952-19.633349H812.401998v-3.020515q-2.084156-9.861983-4.440157-19.63335H807.871225v-0.589a733.743581 733.743581 0 0 0-34.947362-107.636064A734.166453 734.166453 0 0 0 744.440403 241.641225s-22.653865-30.205153-27.184637-34.735926a253.255107 253.255107 0 0 0-31.715411-27.184638c-39.91611-28.830819-79.30363-48.086604-117.800098-57.389791-28.694896-6.947185-54.626019-7.551288-89.105201-7.551288-18.878221 0-77.189269-3.790747-134.412932 13.592319 3.790747-0.46818-58.160022 22.110172-102.697521 55.879533v-1.510257h-1.510257a73.353214 73.353214 0 0 1 0-12.082062 76.872115 76.872115 0 0 1 9.061546-30.205153v-1.510257h-3.020516a129.18744 129.18744 0 0 0-13.592319 46.817987c-1.223309-1.510258-0.558795-0.377564-1.510257-3.020515-2.235181 3.624618-1.132693 8.412135 0 12.082061-2.250284 4.077696-8.623571 5.965518-12.082062 9.061546 1.600873-1.419642-25.221303 25.478047-36.246183 40.776957-61.089922 84.831173-66.768491 150.270637-75.512883 188.782207 2.05395-29.842691-3.216849 7.551288-6.041031 63.521437 1.147796 1.706591 1.162898 2.491925 1.510258 5.950415-1.162898-1.691489-1.208206-2.476823-1.510258-5.587953-2.763772 55.879533-3.020515 130.259723 9.061546 174.736811 2.507028 9.303187 19.995811 96.777311 31.715411 128.371901 15.600962 42.060676 34.237541 80.76858 43.797472 84.574429-4.530773-14.347448-6.041031-26.429509-7.551288-39.266699 23.242865 40.218161 49.204195 45.715499 51.34876 46.666961-5.225491-13.214755-12.082061-26.08215-12.082061-39.115673 11.689394 19.134965 21.27953 37.756441 39.266699 57.389791 0 0-5.633261-26.912791-3.020516-46.817988 11.704497 18.681887 11.447753 23.605327 25.674381 37.756442-8.835007 2.220079-30.205153 11.598779-40.776957 22.653865-3.92667 4.107901-11.553471 13.290267-13.592319 18.123092-0.498385 5.029158-1.011873 10.073419-1.510258 15.102576-8.85011 19.134965-22.653865 42.045573-24.164122 66.451337a69.970237 69.970237 0 0 1 7.551288 0c4.077696-20.267658 6.494108-26.897689 13.592319-40.776957 6.599826 1.887822 15.872808 2.778874 24.164123 6.041031 10.571804 4.153209 28.000177 24.451071 33.225668 34.735926h185.761692c-3.277259-17.081014-23.756353-14.845833-34.735926-24.164122-11.613881-15.600962-9.590136-42.075778-21.143607-57.389791v-1.510258c15.011961 9.801572 27.003407 31.368052 49.838502 31.715411-3.669926 8.683982-4.530773 23.167352 1.510258 30.205153 3.262157 9.84688 14.77032 14.558884 25.67438 16.612834v4.530773h22.653865l4.530773-54.369275c5.51244 6.735749 17.609604 42.287214 18.123092 54.369275h24.164122c-1.193104-5.39162-2.839284-11.613881-6.04103-15.102576 2.099258-4.621388 6.041031-6.947185 10.571803-9.061546v-1.510258h1.510258c1.389437 6.826365 1.646181 16.612834 1.510258 25.67438h87.594944l3.020515-4.530773c10.194239-4.379747 16.023834-7.641904 30.205153-15.102576a20.796248 20.796248 0 0 0 4.530773 4.530773c-6.97739 8.563161-12.157574 8.306417-22.653864 12.082061 0 1.011873-1.510258 2.008643-1.510258 3.020515h28.694895c1.298822-5.270799 0.090615-3.579311 4.530773-7.551288 8.261109-1.751899 15.419731-0.785334 24.164123 7.551288 8.32152-0.52859 3.700131-0.105718 9.061546 0-2.038848-11.795112-16.416501-20.901966-27.184638-19.633349 5.255697-13.335575 7.083108-25.931124 10.571804-40.776957 10.299957 18.455349 18.123092 40.565521 25.67438 60.410306h10.571803c-9.137059-18.123092-19.134965-39.266699-27.184637-57.389791-1.887822-4.228721-0.604103-8.502751-3.020516-12.082061-9.665649-8.472545-20.569709-18.304323-25.67438-21.143607-5.738979-10.571804-6.041031-23.846968-24.164123-33.225669 16.612834-28.951639 14.83073-49.083374 28.694896-61.920564-0.347359 27.728331 1.132693 39.885905 1.510258 54.369276 11.417548-4.832825 27.365869-53.010044 30.205153-72.492368 3.896465 17.111219-3.5189 53.115762-10.571804 80.043656 23.846968-20.932171 49.627067-66.209696 57.389791-99.677005 3.020515 22.910609 3.020515 26.791971-1.510257 43.797472 15.8275-14.136012 33.135053-78.986476 33.225668-98.166748 5.557748 5.829595 11.387343 18.561067 12.384113 22.079967 8.623571-16.522219 11.326932-42.634574 52.556966-67.387697-20.101529-24.405764-48.101706 3.020515-45.307729-190.292465 19.421913-1.812309 45.639986-5.8598 69.471852-16.612834zM104.091156 557.285076H102.580899v-3.020515h1.510257z m172.169373 448.546524c-9.393803-9.84688-14.181319-18.440246-28.694895-25.67438-7.44557-6.192056-19.119862-4.832825-24.164123-4.530773 0.256744-1.011873 5.029158-5.935313 4.530773-6.04103 5.119773-9.061546 6.630031-10.390573 13.592319-18.123092 12.655959-5.587953 25.372329 19.406811 36.246184 46.817987a162.805776 162.805776 0 0 0-1.510258 7.551288z m164.618085 12.082062c-2.612746-0.981667-1.510258-0.302052-3.020515-1.510258 2.612746 0.981667 1.510258 0.302052 3.020515 1.510258z m-4.530773-3.020516c-3.45849 1.978438-10.37547-0.211436-13.592319-3.020515z m258.25406-69.471852l9.061546 7.551288c-3.020515 14.845833-5.406722 30.205153-10.571804 46.817988 1.359232-13.139242 1.344129-43.132959 1.510258-54.369276z m72.492367-475.731162c-1.117591-22.940814-0.891052-1.676386 0-22.653865 16.038936 29.329204 28.01528 165.373214 9.061546 250.702771-4.032388 0-3.262157-3.020515-4.530773-1.510258 8.880315-33.331387 11.568574-155.692462-4.530773-226.538648z m10.571804-51.348761c0.332257 9.348495-3.277259 13.486601-7.551288 13.592319-32.59136-123.841128-61.165435-147.672994-80.043656-208.415557 3.503798 0.347359 11.523266 4.953645 10.571803 3.020516 32.848104 82.88294 45.141601 71.359674 77.023141 191.802722z m-60.410306-205.395041s-4.364645-4.334439-4.530773-4.530773c0.770231 0.815539 5.316107 2.612746 4.530773 4.530773z m-7.551289 15.102576c-6.690441-3.413182-18.621477-10.254649-22.653865-24.164122 13.592319 8.699084 20.28276 16.17486 22.653865 24.164122z m-60.410306-40.776956c7.113314-6.690441 39.91611 28.407947 30.205153 40.776956-29.691666-8.351725-40.988393-35.173901-30.205153-40.776956z m10.571804 104.207778c2.718464 7.44557-0.906155 5.844697-9.061546 6.041031-6.041031-5.738979-19.074554-19.104759-37.756442-10.571804-6.176954-5.814492-4.032388-3.820952-6.04103-6.041031 14.453166-17.277348 46.531038 2.612746 52.859018 10.571804z m-1.510258 13.592319a35.717594 35.717594 0 0 1-3.020515 7.551288c-13.275165-6.146749-24.420866-9.680752-36.246184-9.061546 0-1.011873-6.343082-4.425055-6.041031-7.551288 0-2.069053 29.027152-7.989263 45.30773 9.061546z m-131.392416-125.351386c14.256832-3.141336 20.071324 29.344306 13.592319 33.225669-8.85011 3.669926-24.949457-21.143607-13.592319-33.225669z m-175.189889 24.164123c20.615017-5.346312 11.961241 34.11672 1.510258 34.735926-6.871672 0.286949-19.089657-9.575034-1.510258-34.735926z m-25.67438 18.123092c6.433698 0 6.660236-0.498385 9.061546 1.510257-21.143607 40.414495-21.460761 67.221568-18.123092 107.228294a38.677699 38.677699 0 0 1-10.571803 15.102577c-2.325797-26.157663-11.870625-69.094288 19.633349-123.841128z m-37.756441 43.797472h10.571803c-10.949368 76.645576-13.592319 105.400882-15.102576 141.96422-7.928853 21.944044-8.457443 28.996947-12.082062 55.879533-0.604103-44.401575 1.40454-118.313585 16.612835-197.843753z m-49.838503-81.553914c1.223309 1.510258 0.558795 0.377564 1.510258 3.020516h-1.510258z m7.551288 64.94108c11.946138 5.285902-1.721694 34.52449-9.061546 31.71541-10.133829-0.860847-4.530773-36.246184 9.061546-31.71541z m-42.287214 21.143607c6.252467 5.603056 0.196333 27.60751-9.061546 27.184638-11.417548-2.658053-0.649411-29.555742 9.061546-27.184638z m-28.694896 12.082061c15.102577-0.906155 9.499521 33.482412-9.061546 43.797472-8.079878-1.132693-8.819905-33.225668 9.061546-43.797472z m111.864785 618.103152c1.298822-9.393803 2.839284-13.592319 5.935313-24.571892 6.041031 9.816675 10.571804 13.093934 16.612834 18.123092-10.571804 1.011873-10.828547 1.510258-22.548147 6.4488zM283.811818 827.621197c6.297774 24.451071 9.061546 30.854564 15.102576 48.328245-14.422961-10.103624-24.919251-19.63335-54.369275-80.043656a705.290326 705.290326 0 0 1-31.715411-101.187263c-3.201746-13.743345-11.31183-73.292804-13.592319-96.65649-2.310694 56.997124-4.92344 91.627332-4.530773 114.779582-9.454213-16.612834-22.502839-47.950681-27.184638-66.451337-0.800437 29.314101 0 49.083374 3.020515 89.105202-0.830642 0-5.799389-4.304234-13.592319-33.225669 1.042078 56.015457-0.52859 70.166571 13.592319 116.28984-19.421913-14.226627-20.901966-86.28102-15.102576-132.902674 2.778874 11.508163 6.267569 25.67438 10.571803 34.735926-3.639721-36.246184-5.587953-64.774951-1.510257-102.697521 9.061546 27.184638 19.965606 65.379054 25.67438 70.98211 1.721694-75.407165 5.346312-91.687742 1.510257-144.984735v-19.63335c-44.401575 3.760542-66.360722-3.382977-81.553913-16.612834 31.035795-2.52213 56.408124-15.011961 81.553913-36.246184 0.105718-1.706591 0.196333-3.382977 0.286949-5.029158L191.6861 466.669616v-6.04103c0.211436 0.347359 0.392667 0.649411 0.543693 0.93636C196.503822 384.436087 195.537258 365.119891 220.380996 283.92844a51.197735 51.197735 0 0 1 9.061546 4.530773c-22.230993 78.654219-25.583765 103.346932-27.184638 181.230919-0.558795 27.5471-0.105718 62.690795 1.510258 87.594944 1.510258 22.321608 1.510258 47.965783 6.04103 72.492367 7.777827 42.589266 15.918116 90.615459 25.674381 119.310355 22.819993 67.040337 40.565521 91.989794 45.307729 98.166748-1.767001-13.154344-4.138106-27.531997-6.04103-46.817987 13.139242 24.013097 38.088698 76.570063 72.492367 99.677005-14.740115-42.075778-43.510523-117.362123-43.797472-155.556538 26.474817 73.111573 38.028288 135.017035 67.961595 181.230918-33.980797-5.104671-76.736192-72.703804-87.594944-98.166747z m167.6386 132.902674c-19.421913-9.680752-59.67028-43.525626-66.451337-64.94108 0 0 10.164034-45.050986 13.592319-49.838502 1.117591-3.503798 1.510258-3.367875 3.020515-6.041031 30.205153 8.593366 57.722048 16.492014 93.635975 18.123092-1.978438 8.170494-8.502751 12.806985-12.082061 19.633349-10.677522 20.343171-15.102577 41.230034-24.164123 63.430822-2.507028 6.176954-6.569621 11.221214-7.551288 19.63335z m-42.287215-148.005251c13.592319 1.600873 30.975385 1.329027 45.30773 4.530773h16.612834c3.367875 0.800437 16.054039 4.530773 18.123092 4.530773 7.143519 0 16.869578-3.367875 22.653865 1.510258 3.367875 2.204976 0.513488 16.492014 6.041031 21.143607-1.117591 3.503798-1.510258 3.367875-3.020516 6.041031-21.959146 3.820952-86.371635-10.179137-104.207778-18.123092-1.042078-3.881362-0.785334-15.193192-1.510258-19.63335z m51.348761 152.536024v3.020515h-1.510258c4.138106-15.600962 11.191009-33.225668 19.63335-45.30773 6.161851 6.041031-12.686164 36.638851-18.123092 42.287215z m30.205153 18.123091c-0.302052 6.297774-1.05718 6.91698-3.020515 10.571804-5.829595-0.151026-7.672109-0.347359-10.571804-3.020515-3.730336-3.851157 14.860935-33.905284 16.612834-40.776957 1.827412 3.564208 0.332257 28.241818-3.020515 33.225668z m12.082061-75.512882c-8.049673-0.891052-7.898648-3.624618-13.592319-6.041031 0.40777-7.052903 0.770231-20.343171 9.061546-27.184638 0 0 13.441293 1.631078 19.63335 1.510258 0.649411 5.270799 1.918027 11.523266 4.530773 15.102576-3.45849 10.073419-12.082061 10.828547-19.63335 16.612835z m40.776957 78.533398c-9.831777-2.537233-14.287037-27.954869-15.102577-39.266699 9.303187 6.479005 12.082061 18.938631 19.63335 27.184638-0.392667 7.702314-1.751899 7.672109-4.530773 12.082061z m-15.102577-70.98211l4.530773 1.510258c0.951462 3.367875 1.117591 3.98708 3.020516 6.04103v3.020515h-4.530773c-2.537233-4.998953-3.92667-5.497338-3.020516-10.571803z m22.653865 31.715411h-1.510258c-3.156439-14.196422-10.858753-27.184638-15.102576-39.266699v-12.082062c-0.815539-2.9299-3.669926-9.167264-4.530773-12.082061-3.156439-10.692624-3.700131-20.841556-12.082061-21.143607l9.061546-10.571804c2.612746 0.981667 1.510258 0.302052 3.020515 1.510258 6.479005 5.195286 3.775644 12.882498 7.551288 21.143607 6.690441 14.634397 12.459626 34.11672 16.612834 51.34876 2.084156 8.638674-2.220079 13.728242-3.020515 21.143608z m10.571804 37.756441c0.498385-3.020515 1.011873-6.041031 1.510257-9.061546 1.510258 2.114361 1.510258 4.953645 1.510258 9.061546z m4.530773 9.061546c1.223309 1.767001 1.208206 2.52213 1.510257 6.041031-1.223309-1.767001-1.208206-2.52213-1.510257-6.041031z m42.287214-117.800097c-1.162898 0-3.775644-1.510258-6.04103-1.510258 3.775644-5.542646 7.052903-17.111219 9.061545-22.653865-0.498385 14.679704-1.253514 18.802708-3.020515 24.164123z m51.348761 19.633349c-4.289132-2.793977-8.729289-4.787517-18.123092-7.551288 14.090704-18.379836 14.090704-21.143607 21.143607-39.266699 1.026975 0 4.530773 13.335575-3.020515 46.817987z m-66.451337-92.125717c-15.102577 4.258927-32.349719 4.243824-46.817988 7.551288h-33.225668c-19.104759 3.020515-65.952952 1.011873-87.594944-4.530773-46.470628-11.90083-76.554961-34.630208-113.269325-54.369275-1.253514-23.695943-8.291315-47.905373-13.592319-69.471852-5.799389-23.590225-1.857617-45.171807-7.551288-69.471853-13.290267-56.710175-12.822088-151.735587 1.510258-194.823238 7.868442-22.955916 11.659189-42.045573 19.633349-63.430821 5.8598 21.521172 10.148931 29.616153 18.123092 40.776956h9.061546c-2.008643-4.409952-4.409952-12.958011-6.041031-34.735926 0.755129 4.017285 1.510258 7.551288 2.159669 10.571804h0.860847v3.020515h-0.166129c2.204976 9.152161 4.107901 13.89437 6.207159 16.612834 19.210477 0 72.280932-14.966653 72.492368-15.102576 3.322567 6.282672 36.246184 13.969883 37.756441 7.551288 2.9299-10.118726-20.041119-12.806985-25.67438-13.592319-5.542646-19.316195-7.808032-36.427415-7.551288-63.007949-12.550241-1.797207-21.762813 1.948232-34.735926 5.618158-0.875949-1.887822-3.277259-5.346312-3.020516-7.551288 9.877085-4.92344 17.836143-10.148931 36.246184-7.551288 0.830642-2.295592-0.437975-2.52213 0-6.041031-16.325885-3.186644-31.715411-2.05395-39.266699 10.571804-0.966565 1.253514-7.551288 2.642951-6.041031-6.041031 11.145702-22.2763 51.34876-18.334528 61.920564-6.041031-2.023745 4.349542-4.047491 5.814492-13.592318 3.020516 0.589 1.510258-0.498385 3.020515 0 4.530773h9.061545c1.026975 5.436928 1.102488 6.041031 0 12.082061a33.542823 33.542823 0 0 0-7.551288-1.510258c-1.510258 17.866348 6.403492 47.044526 13.592319 61.920564 18.123092-1.102488 21.672197-1.208206 31.715411-4.530773-5.044261-24.043302-11.674292-51.469581-10.571804-64.941079 3.92667 0.302052 5.738979 1.510258 9.061546 3.020515 3.020515 19.029246 7.309647 41.97006 12.082062 60.410307 0.498385 0.558795 49.838503-3.020515 60.410306-3.020516-0.724924-21.74771-2.793977-71.661726-12.082061-108.738551 3.92667 0.302052 8.155391 2.174771 10.571803 3.020515 6.358185 31.790924 12.535139 70.423315 10.571804 104.207779 35.430645-0.241641 44.809345 1.193104 52.859018-1.510258 1.797207-7.460673 6.252467-21.294633-3.020515-61.920564 7.85334 20.962376 11.387343 54.459891 12.082061 64.941079 19.63335 2.52213 42.287214 6.539416 61.920564 9.061546 0-40.459803-4.349542-53.870891-10.571804-93.635975 8.593366 1.510258-1.042078-0.589 9.061546 1.510258 5.467133 22.895506 10.571804 46.591449 12.082061 95.146233 7.928853 0.634308 16.733655 4.198516 22.653865 1.510257 2.824182-11.281625 1.102488-30.703538 1.510258-42.287214 2.793977 4.198516 3.262157 27.969972 3.020515 43.797472-0.120821 0 4.953645 3.428285 7.551289 0 2.854387-3.503798 3.216849-8.351725 3.020515-15.102577 1.963335-0.604103 6.116544-0.52859 33.225668 72.492368 3.337669 23.454301 0 69.471852 0 77.02314-4.092798 17.926758-5.240594 41.84924-9.061546 58.900049-4.168311 18.576169 5.603056 37.182544 9.061546 49.838503 3.247054 11.870625 1.751899 38.436057-1.510257 49.838503-22.351813 78.186039-80.149374 112.227247-158.577054 134.412931z m141.964219 66.451337h-6.04103c14.755217-37.545005 28.272023-61.769538 40.776957-164.618085 9.061546 6.041031 5.044261 3.473593 9.061546 6.041031-9.408905 57.042432-18.742298 110.36963-43.797473 158.577054z m98.166748-196.333495c5.029158 12.082061 14.966653 21.370146 25.67438 28.694895-18.591272 14.981756-30.099435 25.931124-39.266699 60.410306-9.061546-26.172765-24.375559-50.216067-42.287214-58.900048 17.745527-14.151114 28.045485-21.868531 48.328245-64.94108 2.189874 17.941861 3.639721 25.281713 7.551288 34.735927z m-10.571803-208.415557c15.102577 9.288085 36.095158 28.694896 57.389791 30.205153-8.412135 2.914797-28.060587 4.666696-51.348761 7.551288-3.881362-9.695854-5.92021-21.068094-6.04103-37.756441z" fill="#1296db" p-id="14618"></path><path d="M229.442542 892.41125v0.151026c0.135923 0 0.090615 0 0-0.151026zM206.788677 126.861643c-0.981667-2.612746-0.302052-1.510258-1.510258-3.020515v3.020515zM215.850223 152.536023h1.510258c-0.981667-2.612746-0.302052-1.510258-1.510258-3.020515zM218.870738 155.556539c-0.981667-2.612746-0.302052-1.510258-1.510257-3.020516v3.020516zM224.911769 170.659115c-1.011873-4.530773-2.008643-9.061546-3.020515-13.592319h-3.020516c0.649411 5.39162 1.676386 9.061546 4.530773 12.082062v1.510257zM229.442542 179.720661c-0.981667-2.612746-0.302052-1.510258-1.510258-3.020515v3.020515zM924.161065 218.98736c-1.238411-3.020515-6.569621-3.956875-9.061546-6.04103 1.193104-1.419642-5.421825-11.493061-7.551289-21.143607h-6.04103c-0.498385 4.530773-1.011873 9.061546-1.510258 13.592319-5.346312 5.663466-6.041031 11.175907-15.102576 13.592318 3.609516 5.557748 9.982803 12.489831 15.102576 12.082062l-1.510257 3.020515c1.313924 3.292362 5.663466 5.074466 7.551288 7.551288 0.105718 0.151026-1.178001 4.334439 0 6.041031l1.510257 3.020515c3.956875-2.673156 2.280489-0.891052 1.510258-4.530773v-1.510257l3.020515 1.510257c0.93636-15.178089 6.539416-13.124139 10.571804-24.164122 0.573898-0.755129 2.612746-0.332257 1.510258-3.020516z m-15.102577 19.63335c-4.98385-6.32798-5.044261-13.592319-13.592319-16.612834 3.367875-6.886775 8.306417-7.551288 9.061546-18.123092 5.285902 5.557748 6.207159 11.266522 13.592319 15.102576-2.446617 8.185597-7.717417 10.43588-9.061546 19.63335zM626.640306 377.564415c-0.362462-7.626801-1.193104-6.765954-4.530773-10.571804-11.885728 0.634308-16.416501 6.041031-24.164122 10.571804 0.604103 3.096028 0.377564 2.914797 1.510257 4.530773 1.93313 1.329027 3.730336 1.40454 7.551289 1.510257v1.510258c-5.814492 1.510258-10.088521 3.639721-12.082062 9.061546-1.676386 5.648364 1.510258 2.114361 4.530773 6.04103a105.053523 105.053523 0 0 0-1.510257 10.571804h1.510257v1.510258c12.83719-1.615976 19.980709-9.424008 33.225669-12.082062-6.418595 6.735749-15.797295 15.329115-19.63335 24.164123-11.991446 27.60751-5.467133 75.43737 7.551288 96.65649 7.687211 12.520036 18.63658 15.434833 30.205154 24.164123 43.510523-0.392667 52.859018-69.003672 36.246183-108.738552-5.301004-12.701267-17.050809-21.853428-22.653864-33.225668h-3.020516v-1.510258c23.952686 3.231951 55.607687 45.791012 61.920564 67.961595 4.530773 16.054039 1.510258 43.797472 10.571804 54.369275v1.510258c3.45849-1.510258 3.277259-2.582541 6.04103-4.530773 1.510258-19.63335 5.663466-42.574163 0-63.430822-12.973113-47.754347-54.067224-87.851688-113.269324-80.043655z m42.287214 87.594944c-1.842514 6.041031-5.316107 6.479005-7.551288 10.571803-4.123003 7.551288-3.247054 20.615017-3.020515 31.715411-13.320473-2.114361-10.118726-19.844786-16.612834-28.694895-4.727106-6.4488-15.027064-6.675339-19.63335-13.592319 12.550241-5.754082 18.621477-15.948321 18.123092-34.735926h1.510258v-1.510258c3.096028 0.604103 2.914797 0.377564 4.530773 1.510258 9.3787 5.769184 6.146749 24.753123 22.653864 34.735926zM335.160578 374.543899h1.344129c-0.226539-0.951462-0.453077-1.963335-0.694718-3.020515H335.160578zM428.796553 410.790083h-1.510258v-1.510258c9.454213 3.45849 19.63335 7.415365 30.205153 7.551289-0.694719-9.816675-3.881362-10.103624 1.510258-13.592319-1.842514-16.70345-19.029246-14.679704-34.735926-18.123092-15.102577-3.307464-46.349808 2.008643-63.430822 10.571803-33.769361 16.929988-51.273247 49.838503-63.430821 89.105202-3.020515 9.726059-10.571804 29.495332-7.551289 42.287215s8.261109 26.897689 12.082062 37.756441c6.38839 1.072283 10.84365 0.815539 18.123091 1.510258-0.951462 3.367875-1.117591 3.98708-3.020515 6.04103a23.575122 23.575122 0 0 0 1.510258 7.551289c7.551288-1.434745 7.823135-4.878132 12.082061-9.061546 1.40454-1.615976-0.40777 0.604103 1.510258 1.510257 11.734702 5.572851 2.778874 1.147796 7.551288 10.571804v3.020515c8.578263-0.921257 7.234134-3.685029 12.082061-7.551288 3.020515-1.298822 18.878221 3.715234 25.67438 3.020515 5.950415-0.604103 22.079967-0.105718 31.715411-3.020515 5.693671-1.721694 10.768137-5.134876 18.123092-6.041031v-3.020515c-17.534091 2.295592-41.456573 11.508163-64.941079 6.041031-4.183414-0.966565-9.816675-5.225491-12.082061-6.041031-4.757312-1.706591-11.43265 0.558795-16.612835 0a21.672197 21.672197 0 0 1-1.510257-7.551288c-2.612746-0.981667-1.510258-0.302052-3.020516-1.510258-5.467133 1.117591-4.198516-0.151026-6.04103 4.530773l-10.571804-1.510257c-16.612834-63.747976 25.67438-141.133578 77.023141-152.536024-14.196422 14.196422-24.420866 28.347536-30.205153 51.34876-8.819905 35.05308 10.209342 74.002625 25.67438 86.084687 7.083108 5.557748 16.794065 16.522219 33.225668 12.082061 29.027152-7.838237 51.998171-60.19887 39.266699-104.207778-4.968748-17.186732-15.76709-32.06277-28.694895-45.30773z m-6.041031 86.084687c-3.322567 8.714187 0 21.490966-4.530773 28.694895-1.631078 1.147796-1.389437 0.951462-4.530773 1.510258-1.99354-12.761677-8.170494-23.68084-13.592319-33.225669a72.658496 72.658496 0 0 0-19.633349-3.020515c-0.498385-2.52213-1.011873-5.029158-1.510258-7.551288 6.599826-3.503798 12.520036-6.962288 18.123092-10.571804 2.446617-10.949368 4.817722-27.924664 6.041031-39.266699h4.530773c4.062593 8.986033 2.914797 21.385248 7.551288 31.715411 3.473593 7.747622 14.800525 8.85011 18.123092 16.612834h1.510257c-2.642951 6.403492-9.575034 8.502751-12.082061 15.102577zM809.381483 410.790083c-0.951462-2.642951-0.286949-1.510258-1.510258-3.020515v2.431515c0 0.196333 0.090615 0.392667 0.151026 0.589zM813.912256 433.443948v-3.020515h-1.510258c0.211436 1.011873 0.437975 2.008643 0.649411 3.020515zM192.229793 461.564946c-0.075513 1.510258-0.166128 3.020515-0.256744 4.606285 1.087386-1.902925 1.223309-2.839284 0.256744-4.606285zM101.070641 496.87477v0.453077-0.362462a0.317154 0.317154 0 0 1 0-0.090615zM720.276281 534.631211c0.271846 11.477958 4.289132 10.571804 9.061546 16.612834h7.551288c-0.770231-10.43588-5.165081-9.892188-7.551288-18.123092a27.577305 27.577305 0 0 0-9.061546 1.510258zM711.214735 543.692757c-11.25142 10.571804-41.048803 9.967701-58.900049 9.061546 12.082061 10.888958 42.815805-0.724924 52.859018 0 3.262157 0.241641 6.660236 5.406722 9.061546 4.530773 5.693671-2.069053 3.141336-7.732519 6.041031-10.571804-1.872719-3.760542-4.062593-2.325797-9.061546-3.020515zM560.188969 703.780069c-10.088521 6.312877-30.205153-0.573898-39.266699 6.04103-10.133829 6.660236-11.221214 18.63658-10.571804 36.246184 16.069141 16.144654 14.090704 16.084244 42.287215 13.592319 5.874902-6.041031 14.996859-11.160804 19.633349-18.123092l7.551289-22.653865c0-7.219032-0.845744-9.559931-3.020516-13.592319z m9.061546 25.67438c-1.223309 1.510258-0.558795 0.377564-1.510258 3.020515-13.124139-3.413182-41.44147-14.694807-48.328245 3.020516h-3.020515c1.011873-5.527543 2.507028-6.4488 4.530773-10.571804l13.592319-4.530773c10.571804-0.151026 24.164123-0.226539 30.205153 4.530773l4.530773 1.510258z" fill="#2c2c2c" p-id="14619"></path></svg>