<?xml version="1.0" standalone="no"?><!DOCTYPE svg PUBLIC "-//W3C//DTD SVG 1.1//EN" "http://www.w3.org/Graphics/SVG/1.1/DTD/svg11.dtd"><svg t="1763379237791" class="icon" viewBox="0 0 1024 1024" version="1.1" xmlns="http://www.w3.org/2000/svg" p-id="10207" xmlns:xlink="http://www.w3.org/1999/xlink" width="200" height="200"><path d="M750.688207 480.651786c-40.458342 65.59852-115.105654 102.817686-205.927943 117.362627 2.382361 26.853806 0.292571 62.00408 20.897903 102.232546 40.77181 79.621013 76.486328 166.28462 88.356337 229.897839 69.819896 30.824408 215.958937-42.339153 257.671154-134.540705 44.721514-98.847085 0-202.082729-74.103967-210.755359-74.083069-8.651732-117.655198 31.555835-109.902076 78.65971 7.732224 47.103875 51.868597 47.918893 96.485622 16.822812 44.617024-31.075183 85.869486 32.517138 37.992389 60.562125-47.897995 28.044987-124.133548 44.867799-168.228125-5.642434-44.094577-50.489335-40.458342-228.205109 143.65219-211.716662 184.110532 16.509344 176.127533 261.683551 118.804583 344.042189C894.465785 956.497054 823.600993 1024.519731 616.37738 1023.997283h-167.18323V814.600288 1023.997283h-168.269921c-83.424432 0-24.743118-174.267619 51.826801-323.750324 20.584435-40.228465 18.494645-75.378739 20.897904-102.232546C262.784849 583.469472 188.137536 546.250306 147.679195 480.651786H93.867093A20.814312 20.814312 0 0 1 73.031883 459.753882c0-11.535643 9.46675-20.897904 20.83521-20.897903H127.993369a236.480679 236.480679 0 0 1-10.093687-41.795808H52.071285A20.814312 20.814312 0 0 1 31.236075 376.162267c0-11.535643 9.46675-20.897904 20.83521-20.897903H114.82769v-0.877712c0-57.009481 15.171878-103.131155 41.795808-139.514406V28.379353c0-11.535643 8.630834-17.136281 19.267867-12.517844l208.979037 90.864085c20.793414-2.08979 42.318255-3.113788 64.323748-3.113787s43.530333 1.044895 64.344646 3.134685l208.979037-90.884983c10.616135-4.618437 19.246969 0.982201 19.246969 12.538742v186.471995c26.623929 36.38325 41.795807 82.504924 41.795808 139.514406V355.264364h62.756405c11.493847 0 20.83521 9.278669 20.83521 20.897903 0 11.535643-9.46675 20.897904-20.83521 20.897904h-65.828397a236.480679 236.480679 0 0 1-10.093688 41.795808h34.126277c11.493847 0 20.83521 9.278669 20.83521 20.897903 0 11.535643-9.46675 20.897904-20.83521 20.897904h-53.833z" fill="#FFA500" p-id="10208"></path></svg>